<?xml version="1.0" encoding="UTF-8" standalone="no"?>
<svg
   inkscape:version="1.1.2 (0a00cf5339, 2022-02-04, custom)"
   inkscape:export-ydpi="96"
   inkscape:export-xdpi="96"
   inkscape:export-filename="C:\Users\null\Downloads\witloxpsychotherpy2\assets\img\logo2.png"
   sodipodi:docname="logo4.svg"
   id="svg5"
   version="1.1"
   viewBox="0 0 202.46336 21.027924"
   height="5.5636382mm"
   width="53.568428mm"
   xmlns:inkscape="http://www.inkscape.org/namespaces/inkscape"
   xmlns:sodipodi="http://sodipodi.sourceforge.net/DTD/sodipodi-0.dtd"
   xmlns="http://www.w3.org/2000/svg"
   xmlns:svg="http://www.w3.org/2000/svg"
   xmlns:rdf="http://www.w3.org/1999/02/22-rdf-syntax-ns#"
   xmlns:cc="http://creativecommons.org/ns#"
   xmlns:dc="http://purl.org/dc/elements/1.1/">
  <metadata
     id="metadata159">
    <rdf:RDF>
      <cc:Work
         rdf:about="">
        <dc:format>image/svg+xml</dc:format>
        <dc:type
           rdf:resource="http://purl.org/dc/dcmitype/StillImage" />
      </cc:Work>
    </rdf:RDF>
  </metadata>
  <sodipodi:namedview
     inkscape:document-rotation="0"
     inkscape:current-layer="svg5"
     inkscape:window-maximized="1"
     inkscape:window-y="-8"
     inkscape:window-x="-8"
     inkscape:window-height="1369"
     inkscape:window-width="3440"
     inkscape:cy="165.625"
     inkscape:cx="555.85938"
     inkscape:zoom="1.28"
     showgrid="false"
     inkscape:document-units="px"
     inkscape:pagecheckerboard="0"
     inkscape:pageopacity="0.0"
     inkscape:pageshadow="2"
     borderopacity="1.0"
     bordercolor="#666666"
     pagecolor="#ffffff"
     id="namedview7"
     width="202.46335mm"
     showborder="true" />
  <defs
     id="defs2">
    <rect
       id="rect43709"
       height="69.140625"
       width="498.04688"
       y="1.953125"
       x="346.48438" />
    <rect
       id="rect9023"
       height="51.609322"
       width="284.00439"
       y="6.9369931"
       x="0" />
  </defs>
  <g
     transform="translate(-15.867778,-79.33759)"
     id="layer1"
     inkscape:groupmode="layer"
     inkscape:label="Layer 1" />
  <path
     style="fill:#738171"
     d="m 75.143761,18.50352 c 0.99643,-0.91235 1.7904,-1.88993 2.43922,-2.907842 1.41754,1.584932 2.95459,1.994732 4.42566,1.840542 1.477103,-0.15457 2.876553,-0.87918 4.020003,-1.545721 0.072,-0.04148 0.0965,-0.133835 0.0547,-0.205468 -0.0105,-0.01849 -0.0249,-0.03394 -0.0407,-0.0456 -0.69294,-0.560978 -1.4477,-0.987747 -2.21151,-1.292365 -1.22564,-0.488978 -2.475793,-0.663528 -3.534423,-0.574936 -0.82752,0.06937 -1.5427,0.30085 -2.046,0.670691 0.0622,-0.118376 0.1229,-0.237513 0.18209,-0.356643 0.18586,-0.374743 0.35665,-0.753255 0.51536,-1.133654 0.0143,0.0064 0.0301,0.01089 0.0467,0.01248 2.67748,0.283883 4.445643,-0.640914 5.666013,-2.034695 1.20942,-1.3809725 1.87069,-3.2169832 2.34836,-4.7849462 0.0241,-0.07955 -0.0207,-0.163243 -0.10028,-0.187371 -0.0177,-0.0053 -0.0354,-0.0072 -0.0531,-0.006 v -3.8e-4 c -0.72271,0.04788 -1.42168,0.170783 -2.08596,0.352876 -0.53799,0.147786 -1.0526,0.334026 -1.53781,0.551181 0.13761,-0.273329 0.24807,-0.556836 0.33591,-0.84713 0.42903,-1.420554 0.30274,-2.991909 0.13044,-4.3050163 -0.0106,-0.08219 -0.0863,-0.140246 -0.16851,-0.129689 -0.0207,0.0027 -0.04,0.0094 -0.0569,0.0196 -0.78643,0.4222445 -1.472213,0.9526895 -2.048273,1.5385543 -0.3427,0.348353 -0.64656,0.716309 -0.91047,1.093314 -0.1851,-0.844113 -0.58812,-1.5849278 -1.08765,-2.2473243 -0.55005,-0.729127 -1.21849,-1.36362579 -1.83903,-1.93818089 -0.0607,-0.05617 -0.15571,-0.05241 -0.21226,0.0083 -0.0129,0.01357 -0.0223,0.02903 -0.029,0.04562 l -3.8e-4,-3.79e-4 c -0.33591,0.82903291 -0.52479,1.67766989 -0.59302,2.49878639 -0.10971,1.3134838 0.0886,2.5602388 0.48332,3.5479908 0.4015,1.005095 1.00999,1.747418 1.71047,2.031302 0.13007,0.05278 0.26277,0.08973 0.39812,0.110085 0.0445,0.19642 0.11008,0.378137 0.19792,0.542133 0.0837,0.1564579 0.187,0.2963239 0.31028,0.4177219 0.004,0.0038 0.008,0.0075 0.012,0.01092 -0.46523,1.3089603 -0.9821,2.6277213 -1.65694,3.8974773 -0.0124,-0.2394 -0.0483,-0.484076 -0.10367,-0.732527 0.0185,-0.01697 0.0328,-0.03844 0.0411,-0.0637 0.003,-0.0083 0.005,-0.01697 0.006,-0.02559 0.0803,-0.07955 0.14741,-0.171542 0.20246,-0.273706 0.23299,-0.435064 0.22997,-1.057118 0.0143,-1.72178 -0.20999,-0.6469455 -0.62244,-1.3406303 -1.21358,-1.9419542 -0.36758,-0.373611 -0.8049,-0.712162 -1.30632,-0.98172 -0.017,-0.01018 -0.0362,-0.01697 -0.0569,-0.0196 -0.0822,-0.01056 -0.15759,0.04712 -0.16852,0.12969 -0.10971,0.83582 -0.19001,1.8371427 0.0845,2.7449732 0.27634,0.914987 0.90594,1.727055 2.20849,2.171544 0.0826,0.364566 0.12252,0.718949 0.1048,1.058253 -0.0463,0.08294 -0.0935,0.165507 -0.14137,0.24807 -0.846,1.457498 -1.93064,2.838843 -3.42396,4.054313 -0.0456,0.0374 -0.0652,0.0878 -0.0607,0.14854 0.003,0.0441 0.0238,0.10518 0.0577,0.16927 0.0279,0.0528 0.0682,0.11423 0.1165,0.1738 0.11838,0.14552 0.28878,0.27672 0.47503,0.26352 0.0396,-0.003 0.0746,-0.0207 0.0999,-0.0479 z m 10.327293,-2.921413 c -1.31159,-0.218666 -2.52932,-0.367955 -3.733103,-0.426396 -1.26522,-0.06143 -2.51311,-0.02261 -3.83527,0.141379 0.0486,-0.102918 0.11084,-0.200187 0.18511,-0.2918 0.42338,-0.522151 1.23545,-0.848636 2.23338,-0.932707 1.01716,-0.08558 2.219053,0.08294 3.399073,0.553442 0.59831,0.23864 1.19096,0.555329 1.75081,0.956082 z m -7.579683,-0.09425 c 1.32404,-0.166255 2.57231,-0.205842 3.83791,-0.144387 1.240353,0.06029 2.499173,0.21828 3.864303,0.450518 -1.06013,0.601312 -2.31443,1.207162 -3.615483,1.343262 -1.3542,0.14176 -2.76948,-0.22733 -4.08673,-1.649393 z m -2.0181,-7.5284032 c 0.17568,0.349107 0.36682,0.708015 0.5606,1.0714469 0.54101,1.0145203 1.1001,2.0633483 1.38964,3.0514743 -1.06428,-0.418092 -1.59058,-1.120455 -1.82772,-1.905003 -0.2164,-0.7166875 -0.1968,-1.5072642 -0.12252,-2.2175412 z m 2.13346,4.0795652 c -0.29406,-1.009614 -0.85994,-2.0705075 -1.40735,-3.0967133 -0.19378,-0.3630569 -0.38493,-0.7219649 -0.56136,-1.0733329 0.33666,0.215646 0.63827,0.464469 0.90217,0.732897 0.55721,0.5662599 0.94515,1.2180997 1.14157,1.8239492 0.19076,0.588127 0.20057,1.126116 0.007,1.487281 -0.0241,0.04484 -0.0513,0.08709 -0.0822,0.126299 z m 8.582903,-5.7643992 c -1.09557,1.2411 -2.1855,2.226968 -3.37042,3.1314027 -1.178153,0.8991545 -2.449403,1.7180105 -3.912563,2.6269675 0.32271,-0.88106 0.59114,-1.769657 0.83733,-2.6522295 1.37117,-0.4705007 2.260903,-1.2030207 2.825273,-2.0686237 0.58285,-0.289917 1.2132,-0.53497 1.87899,-0.717817 0.55646,-0.152687 1.13894,-0.262395 1.74101,-0.319323 z m -7.390053,6.0460222 c 1.5559,-0.963998 2.89652,-1.820554 4.133863,-2.7649525 1.12951,-0.8622067 2.17381,-1.7979327 3.21849,-2.9560917 -0.45467,1.405097 -1.0805,2.9489317 -2.11726,4.1327252 -1.15514,1.31914 -2.830933,2.196053 -5.371193,1.937052 0.0464,-0.116122 0.0916,-0.232238 0.1361,-0.348733 z M 77.494391,0.55055771 c 0.21489,0.74948579 0.50405,1.43525679 0.79585,2.12706029 0.48671,1.1540108 0.98021,2.3249878 1.13742,3.8292368 -0.13496,0.521774 -0.18134,1.01829 -0.13496,1.459007 -0.0788,-0.01772 -0.15684,-0.04222 -0.23337,-0.07314 -0.62356,-0.252593 -1.17323,-0.933841 -1.54421,-1.86278 -0.37813,-0.946659 -0.56777,-2.145157 -0.46221,-3.4126468 0.0566,-0.6793625 0.19831,-1.3775755 0.44148,-2.06598529 z m 2.06674,5.51369309 c -0.19982,-1.329696 -0.65184,-2.40152 -1.09822,-3.4593948 -0.28351,-0.6721985 -0.56438,-1.3387435 -0.77512,-2.06070729 0.51725,0.48709079 1.04845,1.01942079 1.49784,1.61508729 0.53045,0.703491 0.9459,1.4959548 1.0854,2.4086828 6.3e-4,0.006 0.003,0.01207 0.004,0.01809 -0.30725,0.491991 -0.54665,0.992654 -0.71404,1.478235 z M 83.222974,2.083081 c -0.66465,1.1083938 -1.300663,2.2009538 -1.834883,3.3055778 -0.58247,1.204907 -1.04279,2.422632 -1.28445,3.6878599 l -0.006,0.0019 c -0.008,-0.01886 -0.0189,-0.03658 -0.0343,-0.05165 -0.10179,-0.1002819 -0.18699,-0.2156449 -0.25598,-0.3445819 -0.31744,-0.592651 -0.30425,-1.468055 0.005,-2.42037 0.3148,-0.97041 0.93535,-2.013205 1.82659,-2.919147 C 82.097391,2.876315 82.627084,2.446907 83.223134,2.08272 Z m -2.912743,6.9172817 c 0.24355,-1.2067909 0.68804,-2.3736209 1.24714,-3.5298939 0.54552,-1.128375 1.201143,-2.248833 1.885403,-3.3877648 0.14288,1.2060378 0.21338,2.5903998 -0.16362,3.8386628 -0.12253,0.406033 -0.29331,0.798119 -0.52517,1.166075 -0.0257,0.02073 -0.0434,0.04863 -0.0513,0.07955 -0.495773,0.749862 -1.254683,1.392656 -2.392483,1.8337509 z m -1.83412,4.2861643 c -0.0995,0.223188 -0.20396,0.445622 -0.31367,0.66655 -0.75288,1.51782 -1.75383,2.974933 -3.18154,4.292193 -0.0592,-0.0189 -0.1248,-0.0807 -0.17908,-0.14703 -0.034,-0.0419 -0.0626,-0.086 -0.0837,-0.12555 l -10e-4,-0.003 c 1.48803,-1.22677 2.57343,-2.615278 3.42244,-4.077671 0.1165,-0.200947 0.22847,-0.403021 0.33667,-0.606228 z"
     id="path9" />
  <g
     aria-label="WITLOX"
     transform="matrix(0.47907054,0,0,0.47907054,-0.23392116,-4.3313345)"
     id="text9021"
     style="font-size:40px;line-height:1.25;white-space:pre;shape-inside:url(#rect9023);fill:#738171"
     inkscape:label="text9021">
    <path
       d="M 8.0859375,43.332507 0.48828125,14.699695 H 4.375 l 4.3554688,18.769531 q 0.703125,2.949219 1.2109375,5.859375 1.0937497,-4.589844 1.2890627,-5.292969 L 16.679687,14.699695 H 21.25 l 4.101562,14.492187 q 1.542969,5.390625 2.226563,10.136719 0.546875,-2.714844 1.425781,-6.230469 l 4.492188,-18.398437 h 3.808593 L 29.453125,43.332507 H 25.800781 L 19.765625,21.516101 q -0.761719,-2.734375 -0.898438,-3.359375 -0.449218,1.972656 -0.839843,3.359375 l -6.074219,21.816406 z"
       style="font-family:Arial;-inkscape-font-specification:Arial"
       id="path38" />
    <path
       d="M 41.484375,43.332507 V 14.699695 h 3.789062 v 28.632812 z"
       style="font-family:Arial;-inkscape-font-specification:Arial"
       id="path40" />
    <path
       d="M 59.238281,43.332507 V 18.078601 H 49.804687 V 14.699695 H 72.5 v 3.378906 h -9.472656 v 25.253906 z"
       style="font-family:Arial;-inkscape-font-specification:Arial"
       id="path42" />
    <path
       d="M 76.230469,43.332507 V 14.699695 h 3.789062 v 25.253906 h 14.101563 v 3.378906 z"
       style="font-family:Arial;-inkscape-font-specification:Arial"
       id="path44" />
    <path
       d="m 97.480469,29.387195 q 0,-7.128906 3.828121,-11.152344 3.82813,-4.042969 9.88282,-4.042969 3.96484,0 7.14843,1.894532 3.1836,1.894531 4.84375,5.292968 1.67969,3.378907 1.67969,7.675782 0,4.355468 -1.75781,7.792968 -1.75781,3.4375 -4.98047,5.214844 -3.22266,1.757813 -6.95312,1.757813 -4.04297,0 -7.22657,-1.953125 -3.18359,-1.953125 -4.824216,-5.332032 -1.640625,-3.378906 -1.640625,-7.148437 z m 3.906251,0.05859 q 0,5.175781 2.77344,8.164062 2.79297,2.96875 6.99218,2.96875 4.27735,0 7.03125,-3.007812 2.77344,-3.007813 2.77344,-8.535157 0,-3.496093 -1.1914,-6.09375 -1.17188,-2.617187 -3.45704,-4.042968 -2.26562,-1.445313 -5.09765,-1.445313 -4.02344,0 -6.9336,2.773438 -2.89062,2.753906 -2.89062,9.21875 z"
       style="font-family:Arial;-inkscape-font-specification:Arial"
       id="path46" />
    <path
       d="m 126.83594,43.332507 11.07422,-14.921875 -9.76563,-13.710937 h 4.51172 l 5.19531,7.34375 q 1.6211,2.285156 2.30469,3.515625 0.95703,-1.5625 2.26562,-3.261719 l 5.76172,-7.597656 h 4.1211 l -10.0586,13.496094 10.83985,15.136718 h -4.6875 l -7.20703,-10.214843 q -0.60547,-0.878907 -1.25,-1.914063 -0.95704,1.5625 -1.36719,2.148438 l -7.1875,9.980468 z"
       style="font-family:Arial;-inkscape-font-specification:Arial"
       id="path48" />
  </g>
  <g
     aria-label="Psychotherapy"
     transform="matrix(0.5,0,0,0.5,-86.579619,-2.9020035)"
     id="text43707"
     style="font-size:40px;line-height:1.25;white-space:pre;shape-inside:url(#rect43709);fill:#738171">
    <path
       d="m 358.125,15.379382 -1.95313,10.136719 q 0.64454,0.195313 2.67579,0.195313 2.85156,0 4.58984,-1.464844 1.73828,-1.425781 2.36328,-4.609375 0.23438,-1.191406 0.23438,-2.070313 0,-4.023437 -4.4336,-4.023437 -1.93359,0 -2.63672,0.449219 -0.68359,0.429687 -0.83984,1.386718 z M 351.09375,35.516101 355,15.379382 q 0.0391,-0.273437 0.0391,-0.371093 0,-0.664063 -0.42969,-0.957032 -0.41015,-0.3125 -0.95703,-0.351562 l -1.48437,-0.07813 q -0.25391,0 -0.19531,-0.234375 l 0.15625,-0.839844 0.11718,-0.07813 q 2.8125,0.07813 4.88282,0.07813 0.85937,0 2.73437,-0.175781 1.875,-0.175781 2.30469,-0.175781 1.71875,0 3.02734,0.351562 1.32813,0.332031 2.10938,0.878906 0.78125,0.527344 1.28906,1.269532 0.50781,0.742187 0.68359,1.445312 0.17578,0.703125 0.17578,1.484375 0,0.644531 -0.13671,1.289063 -0.21485,1.09375 -0.66407,2.167968 -0.44922,1.054688 -1.32812,2.167969 -0.85938,1.09375 -2.01172,1.933594 -1.13281,0.820312 -2.83203,1.347656 -1.69922,0.527344 -3.71094,0.527344 -1.69922,0 -2.85156,-0.390625 l -1.71875,8.847656 q -0.0586,0.253906 -0.0586,0.488281 0,0.605469 0.42969,0.878907 0.42969,0.253906 1.38672,0.3125 l 1.40625,0.07813 q 0.29297,0 0.23438,0.3125 l -0.15625,0.761718 -0.0781,0.07813 q -3.59375,-0.07813 -5.23437,-0.07813 -2.10938,0 -4.92188,0.07813 l -0.0781,-0.07813 0.15625,-0.761718 q 0.0586,-0.3125 0.35156,-0.3125 l 1.01562,-0.07813 q 1.17188,-0.09766 1.73828,-0.46875 0.56641,-0.371094 0.70313,-1.210938 z"
       style="font-style:italic;font-family:'Linux Libertine G';-inkscape-font-specification:'Linux Libertine G Italic'"
       id="path51" />
    <path
       d="m 373.37891,38.738757 q -2.01172,-0.117187 -3.30079,-1.035156 -1.28906,-0.917969 -1.28906,-2.070312 0,-0.46875 0.35156,-0.9375 0.3711,-0.46875 1.13282,-0.46875 0.82031,0 1.30859,0.644531 0.46875,0.664062 0.56641,1.484375 0.0781,0.625 0.46875,0.859375 0.41015,0.214844 1.25,0.214844 1.48437,0 2.4414,-0.703125 0.95703,-0.722657 0.95703,-2.265625 0,-1.933594 -2.4414,-3.59375 -3.47656,-2.363282 -3.47656,-5.078125 0,-1.953125 1.5625,-3.476563 1.5625,-1.523437 4.04296,-1.523437 1.79688,0 3.16407,1.035156 1.38672,1.035156 1.38672,2.167969 0,0.566406 -0.35157,0.957031 -0.33203,0.390625 -1.09375,0.390625 -0.72265,0 -1.23047,-0.625 -0.50781,-0.644531 -0.60546,-1.445313 -0.15625,-1.152343 -1.79688,-1.152343 -1.21094,0 -1.875,0.839843 -0.64453,0.839844 -0.64453,1.992188 0,0.761719 0.35156,1.347656 0.3711,0.585938 1.25,1.171875 2.63672,1.757813 3.69141,3.222656 1.07422,1.445313 1.07422,2.929688 0,2.265625 -1.69922,3.691406 -1.69922,1.425781 -4.58985,1.425781 z"
       style="font-style:italic;font-family:'Linux Libertine G';-inkscape-font-specification:'Linux Libertine G Italic'"
       id="path53" />
    <path
       d="m 394.62891,38.348132 -1.81641,2.792969 q -1.91406,2.949219 -4.10156,4.746094 -2.1875,1.816406 -3.78907,1.816406 -0.42968,0 -0.95703,-0.136719 -0.50781,-0.117187 -0.99609,-0.527343 -0.48828,-0.410157 -0.48828,-1.015625 0,-0.878907 0.58594,-1.464844 0.58593,-0.566406 1.26953,-0.566406 0.23437,0 0.70312,0.175781 0.48828,0.195312 0.6836,0.371094 0.2539,0.214843 0.70312,0.46875 0.44922,0.253906 0.70313,0.253906 0.44921,0 1.58203,-1.269531 1.13281,-1.25 2.30468,-3.164063 0.35157,-0.78125 -0.37109,-6.308594 -0.68359,-5.449218 -1.60156,-8.535156 -0.3711,-1.230469 -0.625,-1.679687 -0.27344,-0.449219 -1.11328,-0.449219 -0.82032,0 -2.61719,0.859375 -0.41016,-0.410156 -0.52734,-1.230469 1.17187,-0.859375 2.89062,-1.777344 1.73828,-0.917968 2.40234,-0.917968 0.74219,0 1.19141,0.664062 0.44922,0.664063 0.87891,2.285156 0.82031,3.398438 1.17187,6.367188 0.35156,2.96875 0.54688,7.03125 l 0.27343,0.117187 q 0.46875,-0.664062 1.23047,-1.875 l 1.28907,-2.089843 0.54687,-0.878907 q 3.02734,-4.726562 3.02734,-6.914062 0,-1.132813 -0.83984,-2.402344 -0.21484,-0.3125 -0.21484,-0.820312 0,-1.484375 1.85547,-1.484375 2.08984,0 2.08984,1.894531 0,1.71875 -1.07422,4.257812 -0.39062,0.917969 -1.44531,2.734375 l -2.07031,3.4375 -2.07032,3.320313 q -1.07422,1.679687 -1.21093,1.914062 z"
       style="font-style:italic;font-family:'Linux Libertine G';-inkscape-font-specification:'Linux Libertine G Italic'"
       id="path55" />
    <path
       d="m 408.61328,38.738757 q -1.19141,0 -2.20703,-0.507812 -1.01563,-0.527344 -1.64063,-1.40625 -1.1914,-1.660156 -1.1914,-4.433594 0,-2.617187 0.8789,-4.882812 0.87891,-2.285157 2.40235,-3.90625 1.1914,-1.269532 2.87109,-2.03125 1.67969,-0.78125 2.96875,-0.78125 1.25,0 2.12891,0.273437 0.8789,0.253906 1.32812,0.625 0.44922,0.351563 0.6836,0.9375 0.2539,0.585938 0.29297,0.996094 0.0391,0.410156 0.0391,1.015625 0,0.742187 -0.625,1.269531 -0.625,0.527344 -1.44531,0.527344 -0.48829,0 -0.78125,-0.390625 -0.29297,-0.390625 -0.29297,-0.898438 0,-0.488281 0.19531,-0.839843 0.19531,-0.332032 0.19531,-0.761719 0,-0.605469 -0.33203,-0.976563 -0.3125,-0.371093 -0.64453,-0.449218 -0.33203,-0.09766 -0.70313,-0.09766 -2.42187,0 -4.16015,2.597657 -1.71875,2.597656 -1.71875,6.894531 0,1.660156 0.23437,2.480469 0.25391,0.820312 0.76172,1.484375 0.72266,0.917968 2.01172,0.917968 1.48438,0 2.71484,-0.78125 1.23047,-0.800781 2.5586,-2.285156 0.27344,0 0.52734,0.195313 0.27344,0.195312 0.35156,0.488281 -1.52343,2.148437 -3.4375,3.4375 -1.91406,1.289062 -3.96484,1.289062 z"
       style="font-style:italic;font-family:'Linux Libertine G';-inkscape-font-specification:'Linux Libertine G Italic'"
       id="path57" />
    <path
       d="m 422.83203,35.477039 q -0.0586,0.273437 -0.15625,0.761718 -0.0781,0.488282 -0.13672,0.78125 -0.0586,0.273438 -0.19531,0.644532 -0.11719,0.371093 -0.27344,0.585937 -0.15625,0.195313 -0.42969,0.332031 -0.27343,0.15625 -0.64453,0.15625 -0.89843,0 -1.26953,-0.273437 -0.37109,-0.273438 -0.37109,-0.800781 0,-0.175782 0.0781,-0.507813 0.0781,-0.351562 0.23438,-0.898437 l 0.19531,-0.78125 4.375,-19.648438 q 0.27344,-1.230469 0.27344,-1.992187 0,-0.625 -0.21485,-0.878907 -0.19531,-0.253906 -0.625,-0.253906 l -1.23046,-0.07813 q -0.19532,0 -0.19532,-0.195312 l 0.11719,-0.957032 q 1.23047,-0.07813 3.00781,-0.410156 1.79688,-0.351562 2.59766,-0.644531 0.46875,0 0.46875,0.410156 -0.41016,1.601563 -0.99609,4.199219 l -2.42188,10.859375 q 2.55859,-2.988281 4.31641,-4.042969 1.75781,-1.054687 3.49609,-1.054687 2.65625,0 2.65625,3.203125 0,0.644531 -0.52734,3.027343 l -1.52344,6.367188 q -0.42969,1.894531 -0.42969,2.285156 0,0.683594 0.39063,0.683594 0.33203,0 1.09375,-0.566406 0.76172,-0.585938 1.5039,-1.445313 0.6836,0 0.91797,0.683594 -2.89062,3.710937 -5.54687,3.710937 -1.64063,0 -1.64063,-1.308593 0,-0.78125 0.6836,-3.691407 l 1.5039,-6.386718 q 0.41016,-1.796875 0.41016,-2.675782 0,-0.859375 -0.35156,-1.171875 -0.35157,-0.3125 -1.05469,-0.3125 -1.05469,0 -2.83203,1.5625 -1.77735,1.542969 -3.73047,4.082032 z"
       style="font-style:italic;font-family:'Linux Libertine G';-inkscape-font-specification:'Linux Libertine G Italic'"
       id="path59" />
    <path
       d="m 442.98828,31.551257 q 0,2.851563 0.89844,4.296875 0.91797,1.425782 1.97265,1.425782 1.19141,0 2.30469,-0.605469 1.13281,-0.605469 1.9336,-1.835938 0.95703,-1.484375 1.32812,-3.535156 0.39063,-2.050781 0.39063,-3.75 0,-2.460937 -0.60547,-3.671875 -0.44922,-0.898437 -1.01563,-1.328125 -0.54687,-0.429687 -1.40625,-0.429687 -1.5039,0 -2.67578,0.957031 -1.17187,0.9375 -1.83594,2.421875 -0.64453,1.484375 -0.97656,3.046875 -0.3125,1.5625 -0.3125,3.007812 z m -3.32031,0.3125 q 0,-1.484375 0.37109,-2.988281 0.3711,-1.523437 1.17188,-2.96875 0.82031,-1.464844 1.93359,-2.597656 1.13281,-1.132813 2.77344,-1.816406 1.66015,-0.703125 3.59375,-0.703125 1.42578,0 2.46094,0.410156 1.05468,0.410156 1.64062,1.035156 0.60547,0.625 0.95703,1.542969 0.35156,0.898437 0.44922,1.71875 0.11719,0.800781 0.11719,1.777344 0,3.457031 -1.75781,6.425781 -1.75782,2.949219 -4.4336,4.296875 -1.48437,0.742187 -3.6914,0.742187 -1.44532,0 -2.51954,-0.527343 -1.07421,-0.527344 -1.64062,-1.25 -0.56641,-0.742188 -0.91797,-1.757813 -0.33203,-1.035156 -0.42969,-1.777344 -0.0781,-0.761718 -0.0781,-1.5625 z"
       style="font-style:italic;font-family:'Linux Libertine G';-inkscape-font-specification:'Linux Libertine G Italic'"
       id="path61" />
    <path
       d="m 461.85547,21.180164 0.52734,-1.992188 q 0.0781,-0.332031 0.17578,-0.898437 0.11719,-0.566407 0.19532,-0.898438 0.0976,-0.351562 0.2539,-0.722656 0.15625,-0.390625 0.42969,-0.566406 0.29297,-0.195313 0.70312,-0.195313 0.91797,0 1.25,0.273438 0.35157,0.253906 0.35157,0.800781 0,0.214844 -0.0977,0.625 -0.0781,0.390625 -0.23437,0.996094 -0.15625,0.566406 -0.19532,0.78125 l -0.41015,1.796875 h 3.96484 q 0.3125,0.234375 0.15625,0.820312 -0.15625,0.585938 -0.54687,0.742188 h -3.92579 l -2.36328,10.527343 q -0.42968,1.914063 -0.42968,2.519532 0,0.3125 0.17578,0.449218 0.17578,0.117188 0.33203,0.117188 0.52734,0 1.21094,-0.507813 0.68359,-0.507812 1.99218,-1.972656 0.70313,0 0.87891,0.761719 -0.99609,1.796875 -2.71484,2.949219 -1.69922,1.152343 -3.08594,1.152343 -0.97656,0 -1.46485,-0.390625 -0.48828,-0.410156 -0.48828,-1.445312 0,-0.742188 0.56641,-3.28125 l 2.42187,-10.878906 h -2.79296 q -0.23438,0 -0.23438,-0.07813 0,-0.214844 0.15625,-0.683594 0.15625,-0.605469 1.11328,-0.664063 z"
       style="font-style:italic;font-family:'Linux Libertine G';-inkscape-font-specification:'Linux Libertine G Italic'"
       id="path63" />
    <path
       d="m 473.71094,35.477039 q -0.0586,0.273437 -0.15625,0.761718 -0.0781,0.488282 -0.13672,0.78125 -0.0586,0.273438 -0.19531,0.644532 -0.11719,0.371093 -0.27344,0.585937 -0.15625,0.195313 -0.42969,0.332031 -0.27344,0.15625 -0.64453,0.15625 -0.89844,0 -1.26953,-0.273437 -0.3711,-0.273438 -0.3711,-0.800781 0,-0.175782 0.0781,-0.507813 0.0781,-0.351562 0.23437,-0.898437 l 0.19532,-0.78125 4.375,-19.648438 q 0.27343,-1.230469 0.27343,-1.992187 0,-0.625 -0.21484,-0.878907 -0.19531,-0.253906 -0.625,-0.253906 l -1.23047,-0.07813 q -0.19531,0 -0.19531,-0.195312 l 0.11719,-0.957032 q 1.23047,-0.07813 3.00781,-0.410156 1.79687,-0.351562 2.59766,-0.644531 0.46875,0 0.46875,0.410156 -0.41016,1.601563 -0.9961,4.199219 l -2.42187,10.859375 q 2.55859,-2.988281 4.3164,-4.042969 1.75782,-1.054687 3.4961,-1.054687 2.65625,0 2.65625,3.203125 0,0.644531 -0.52735,3.027343 l -1.52343,6.367188 q -0.42969,1.894531 -0.42969,2.285156 0,0.683594 0.39062,0.683594 0.33203,0 1.09375,-0.566406 0.76172,-0.585938 1.50391,-1.445313 0.68359,0 0.91797,0.683594 -2.89063,3.710937 -5.54688,3.710937 -1.64062,0 -1.64062,-1.308593 0,-0.78125 0.68359,-3.691407 l 1.50391,-6.386718 q 0.41015,-1.796875 0.41015,-2.675782 0,-0.859375 -0.35156,-1.171875 -0.35156,-0.3125 -1.05469,-0.3125 -1.05468,0 -2.83203,1.5625 -1.77734,1.542969 -3.73047,4.082032 z"
       style="font-style:italic;font-family:'Linux Libertine G';-inkscape-font-specification:'Linux Libertine G Italic'"
       id="path65" />
    <path
       d="m 501.62109,23.543445 q 0,-0.859375 -0.42968,-1.191406 -0.42969,-0.332032 -1.52344,-0.332032 -3.59375,0 -5.29297,6.835938 1.28906,-0.15625 2.44141,-0.488281 1.15234,-0.351563 2.28515,-0.9375 1.15235,-0.605469 1.83594,-1.601563 0.68359,-1.015625 0.68359,-2.285156 z m -7.51953,6.835937 q -0.0391,0.3125 -0.0391,1.367188 0,2.558594 0.78125,3.59375 0.80078,1.015625 2.26562,1.015625 1.48438,0 2.46094,-0.488281 0.9961,-0.507813 2.65625,-2.207032 0.64453,0 0.91797,0.644532 -3.4375,4.433593 -7.48047,4.433593 -2.38281,0 -3.65234,-1.699218 -1.26953,-1.699219 -1.26953,-4.375 0,-1.582032 0.33203,-3.183594 0.35156,-1.621094 1.13281,-3.183594 0.78125,-1.582031 1.89453,-2.792969 1.11328,-1.210937 2.79297,-1.953125 1.67969,-0.761718 3.69141,-0.761718 1.01562,0 1.79687,0.3125 0.78125,0.3125 1.19141,0.800781 0.41015,0.46875 0.60547,0.957031 0.19531,0.46875 0.19531,0.878906 0,1.308594 -0.41016,2.089844 -1.5625,2.929688 -9.86328,4.550781 z"
       style="font-style:italic;font-family:'Linux Libertine G';-inkscape-font-specification:'Linux Libertine G Italic'"
       id="path67" />
    <path
       d="m 512.30469,26.941882 0.15625,0.03906 q 1.32812,-2.832031 2.94922,-4.511719 1.64062,-1.679687 3.125,-1.679687 1.01562,0 1.54296,0.585937 0.54688,0.566406 0.54688,1.289063 0,0.859375 -0.52734,1.5625 -0.50782,0.683593 -1.28907,0.683593 -0.60547,0 -1.34765,-0.839843 -0.41016,-0.488282 -0.83985,-0.488282 -1.11328,0 -5.07812,7.207032 l -1.17188,4.6875 q -0.0781,0.273437 -0.17578,0.78125 -0.0976,0.488281 -0.17578,0.78125 -0.0586,0.273437 -0.19531,0.644531 -0.11719,0.371094 -0.27344,0.566406 -0.15625,0.195313 -0.42969,0.332031 -0.2539,0.15625 -0.58593,0.15625 -1.52344,0 -1.52344,-1.074218 0,-0.273438 0.0781,-0.605469 0.0781,-0.351563 0.21485,-0.800781 0.13672,-0.46875 0.21484,-0.78125 l 2.22656,-9.960938 q 0.27344,-1.113281 0.27344,-2.050781 0,-0.742188 -0.72266,-0.800781 l -1.60156,-0.117188 q -0.42969,-0.664062 -0.0391,-1.113281 0.50781,-0.05859 1.34766,-0.175781 l 1.30859,-0.175782 q 0.48828,-0.07813 1.09375,-0.117187 0.60547,-0.05859 1.05469,-0.05859 0.39062,0 0.625,0.273438 0.23437,0.253906 0.23437,0.722656 0,0.625 -0.68359,3.632812 z"
       style="font-style:italic;font-family:'Linux Libertine G';-inkscape-font-specification:'Linux Libertine G Italic'"
       id="path69" />
    <path
       d="m 533.53516,21.023914 q 0.35156,0.09766 0.78125,0.117187 0.44921,0 1.11328,-0.01953 0.66406,-0.01953 0.89843,-0.01953 l -2.7539,12.441406 q -0.41016,1.992187 -0.41016,2.246094 0,0.3125 0.15625,0.449218 0.17578,0.117188 0.33203,0.117188 0.70313,0 2.2461,-2.128906 0.2539,0 0.42968,0.117187 0.19532,0.09766 0.25391,0.195313 l 0.23438,0.332031 q -1.75782,3.867187 -5.13672,3.867187 -1.6211,0 -1.6211,-1.796875 0,-0.878906 0.39063,-2.1875 l 0.52734,-1.679687 -0.0781,-0.07813 q -3.88672,5.742187 -6.77735,5.742187 -3.86718,0 -3.86718,-5.390625 0,-2.265625 0.97656,-4.589843 0.97656,-2.34375 2.4414,-4.0625 1.48438,-1.71875 3.28125,-2.8125 1.79688,-1.09375 3.37891,-1.09375 1.05469,0 3.20313,0.234375 z m -2.01172,8.554687 q 0.44922,-1.132812 0.80078,-2.832031 0.35156,-1.699219 0.46875,-2.832031 l 0.13672,-1.132813 q -1.19141,-0.761719 -2.48047,-0.761719 -1.3086,0 -2.63672,1.074219 -1.30859,1.074219 -2.24609,2.675781 -0.9375,1.601563 -1.52344,3.476563 -0.58594,1.875 -0.58594,3.457031 0,3.847656 1.75781,3.847656 0.97657,0 2.91016,-2.128906 1.93359,-2.148437 3.39844,-4.84375 z"
       style="font-style:italic;font-family:'Linux Libertine G';-inkscape-font-specification:'Linux Libertine G Italic'"
       id="path71" />
    <path
       d="m 547.20703,22.195789 q 2.34375,-1.40625 4.58984,-1.40625 1.44532,0 2.48047,0.449218 1.03516,0.449219 1.58203,1.308594 0.56641,0.839844 0.80079,1.875 0.2539,1.035156 0.2539,2.363281 0,4.296875 -3.22265,8.242188 -3.02735,3.710937 -6.9336,3.710937 -0.82031,0 -1.62109,-0.390625 -0.78125,-0.390625 -1.28906,-0.917968 l -1.75782,7.363281 q -0.13672,0.390625 -0.0391,0.683594 0.0977,0.292968 0.19531,0.449218 0.0977,0.175782 0.33203,0.273438 0.25391,0.117187 0.41016,0.15625 0.17578,0.03906 0.41016,0.07813 l 0.76172,0.117187 q 0.23437,0.05859 0.23437,0.3125 v 0.800782 l -0.0781,0.07813 q -2.71485,-0.07813 -4.27735,-0.07813 -0.64453,0 -1.67969,0.03906 -1.03515,0.05859 -1.75781,0.09766 l -0.72265,0.05859 -0.0781,-0.07813 v -0.761719 q 0,-0.234375 0.41016,-0.3125 l 0.74218,-0.117187 q 0.97657,-0.15625 1.44532,-0.566406 0.48828,-0.390625 0.68359,-1.230469 l 4.12109,-18.359375 q -1.99218,1.640625 -2.87109,2.792969 -1.01562,0 -1.25,-0.839844 0.78125,-0.976563 1.85547,-1.894531 1.07422,-0.9375 2.75391,-2.148438 l 0.50781,-2.363281 q 0.0586,-0.273438 0.13672,-0.761719 l 0.15625,-0.761719 q 0.0391,-0.292968 0.17578,-0.664062 0.13672,-0.390625 0.29297,-0.585938 0.15625,-0.214843 0.42968,-0.351562 0.27344,-0.15625 0.64454,-0.15625 0.91796,0 1.28906,0.273437 0.39062,0.273438 0.39062,0.820313 0,0.214844 -0.0976,0.644531 l -0.23438,0.957031 q -0.11719,0.527344 -0.17578,0.800782 z m 6.42578,5.234375 q 0,-4.804688 -3.10547,-4.804688 -0.70312,0 -1.44531,0.234375 -0.72266,0.234375 -1.17187,0.488281 -0.42969,0.234375 -1.07422,0.644532 l -2.63672,11.679687 q 1.23047,1.679688 2.96875,1.679688 1.11328,0 2.22656,-0.800782 1.11328,-0.78125 1.93359,-2.070312 1.09375,-1.71875 1.69922,-3.632813 0.60547,-1.914062 0.60547,-3.417968 z"
       style="font-style:italic;font-family:'Linux Libertine G';-inkscape-font-specification:'Linux Libertine G Italic'"
       id="path73" />
    <path
       d="m 570.21484,38.348132 -1.8164,2.792969 q -1.91407,2.949219 -4.10157,4.746094 -2.1875,1.816406 -3.78906,1.816406 -0.42969,0 -0.95703,-0.136719 -0.50781,-0.117187 -0.99609,-0.527343 -0.48828,-0.410157 -0.48828,-1.015625 0,-0.878907 0.58593,-1.464844 0.58594,-0.566406 1.26953,-0.566406 0.23438,0 0.70313,0.175781 0.48828,0.195312 0.68359,0.371094 0.25391,0.214843 0.70313,0.46875 0.44922,0.253906 0.70312,0.253906 0.44922,0 1.58203,-1.269531 1.13282,-1.25 2.30469,-3.164063 0.35156,-0.78125 -0.37109,-6.308594 -0.6836,-5.449218 -1.60156,-8.535156 -0.3711,-1.230469 -0.625,-1.679687 -0.27344,-0.449219 -1.11329,-0.449219 -0.82031,0 -2.61718,0.859375 -0.41016,-0.410156 -0.52735,-1.230469 1.17188,-0.859375 2.89063,-1.777344 1.73828,-0.917968 2.40234,-0.917968 0.74219,0 1.19141,0.664062 0.44922,0.664063 0.8789,2.285156 0.82032,3.398438 1.17188,6.367188 0.35156,2.96875 0.54687,7.03125 l 0.27344,0.117187 q 0.46875,-0.664062 1.23047,-1.875 l 1.28906,-2.089843 0.54688,-0.878907 q 3.02734,-4.726562 3.02734,-6.914062 0,-1.132813 -0.83984,-2.402344 -0.21485,-0.3125 -0.21485,-0.820312 0,-1.484375 1.85547,-1.484375 2.08985,0 2.08985,1.894531 0,1.71875 -1.07422,4.257812 -0.39063,0.917969 -1.44531,2.734375 l -2.07032,3.4375 -2.07031,3.320313 q -1.07422,1.679687 -1.21094,1.914062 z"
       style="font-style:italic;font-family:'Linux Libertine G';-inkscape-font-specification:'Linux Libertine G Italic'"
       id="path75" />
  </g>
</svg>
