<?xml version="1.0" encoding="UTF-8" standalone="no"?>
<!-- Created with Inkscape (http://www.inkscape.org/) -->

<svg
   width="133.25377mm"
   height="37.784992mm"
   viewBox="0 0 133.25377 37.784992"
   version="1.1"
   id="svg5"
   sodipodi:docname="logo2.svg"
   inkscape:export-filename="C:\Users\null\Downloads\witloxpsychotherpy2\assets\img\logo2.png"
   inkscape:export-xdpi="96"
   inkscape:export-ydpi="96"
   inkscape:version="1.1.1 (3bf5ae0d25, 2021-09-20)"
   xmlns:inkscape="http://www.inkscape.org/namespaces/inkscape"
   xmlns:sodipodi="http://sodipodi.sourceforge.net/DTD/sodipodi-0.dtd"
   xmlns="http://www.w3.org/2000/svg"
   xmlns:svg="http://www.w3.org/2000/svg">
  <sodipodi:namedview
     id="namedview7"
     pagecolor="#ffffff"
     bordercolor="#666666"
     borderopacity="1.0"
     inkscape:pageshadow="2"
     inkscape:pageopacity="0.0"
     inkscape:pagecheckerboard="0"
     inkscape:document-units="mm"
     showgrid="false"
     inkscape:zoom="1.28"
     inkscape:cx="-29.296875"
     inkscape:cy="179.29688"
     inkscape:window-width="3440"
     inkscape:window-height="1369"
     inkscape:window-x="2552"
     inkscape:window-y="-8"
     inkscape:window-maximized="1"
     inkscape:current-layer="svg5" />
  <defs
     id="defs2" />
  <g
     inkscape:label="Layer 1"
     inkscape:groupmode="layer"
     id="layer1"
     transform="translate(-13.003973,-73.976269)" />
  <path
     id="path9"
     d="m 82.329398,18.503521 c 0.99643,-0.91235 1.7904,-1.88993 2.43922,-2.907842 1.41754,1.584932 2.954589,1.994732 4.425659,1.840542 1.4771,-0.15457 2.87655,-0.87918 4.02,-1.545721 0.072,-0.04148 0.0965,-0.133835 0.0547,-0.205468 -0.0105,-0.01849 -0.0249,-0.03394 -0.0407,-0.0456 -0.69294,-0.560978 -1.4477,-0.987747 -2.21151,-1.292365 -1.22564,-0.488978 -2.47579,-0.663528 -3.53442,-0.574936 -0.827519,0.06937 -1.542699,0.30085 -2.045999,0.670691 0.0622,-0.118376 0.1229,-0.237513 0.18209,-0.356643 0.18586,-0.374743 0.35665,-0.753255 0.51536,-1.133654 0.0143,0.0064 0.0301,0.01089 0.0467,0.01248 2.677479,0.283883 4.445639,-0.640914 5.666009,-2.034696 1.20942,-1.3809704 1.87069,-3.2169824 2.34836,-4.7849454 0.0241,-0.07955 -0.0207,-0.163243 -0.10028,-0.187371 -0.0177,-0.0053 -0.0354,-0.0072 -0.0531,-0.006 v -3.8e-4 c -0.72271,0.04788 -1.42168,0.170783 -2.08596,0.352876 -0.53799,0.147786 -1.0526,0.334026 -1.53781,0.551181 0.13761,-0.273329 0.24807,-0.556836 0.33591,-0.84713 0.42903,-1.420554 0.30274,-2.991909 0.13044,-4.305017 -0.0106,-0.08219 -0.0863,-0.140246 -0.16851,-0.129689 -0.0207,0.0027 -0.04,0.0094 -0.0569,0.0196 -0.78643,0.422245 -1.47221,0.95269 -2.04827,1.538555 -0.3427,0.348353 -0.64656,0.716309 -0.91047,1.093314 -0.1851,-0.844113 -0.58812,-1.584928 -1.087649,-2.247325 -0.55005,-0.729127 -1.21849,-1.36362599 -1.83903,-1.93818099 -0.0607,-0.05617 -0.15571,-0.05241 -0.21226,0.0083 -0.0129,0.01357 -0.0223,0.02903 -0.029,0.04562 l -3.8e-4,-3.79e-4 c -0.33591,0.829033 -0.52479,1.67766999 -0.59302,2.49878699 -0.10971,1.313484 0.0886,2.560239 0.48332,3.547991 0.4015,1.005095 1.00999,1.747418 1.71047,2.031302 0.13007,0.05278 0.26277,0.08973 0.39812,0.110085 0.0445,0.19642 0.11008,0.378137 0.19792,0.542133 0.0837,0.156458 0.187,0.296324 0.310279,0.417722 0.004,0.0038 0.008,0.0075 0.012,0.01092 -0.465229,1.3089594 -0.982099,2.6277214 -1.656939,3.8974774 -0.0124,-0.2394 -0.0483,-0.484076 -0.10367,-0.732527 0.0185,-0.01697 0.0328,-0.03844 0.0411,-0.0637 0.003,-0.0083 0.005,-0.01697 0.006,-0.02559 0.0803,-0.07955 0.14741,-0.171542 0.20246,-0.273706 0.23299,-0.435065 0.22997,-1.057119 0.0143,-1.721781 -0.20999,-0.6469434 -0.62244,-1.3406294 -1.21358,-1.9419534 -0.36758,-0.373611 -0.8049,-0.712162 -1.30632,-0.98172 -0.017,-0.01018 -0.0362,-0.01697 -0.0569,-0.0196 -0.0822,-0.01056 -0.15759,0.04712 -0.16852,0.12969 -0.10971,0.83582 -0.19001,1.837143 0.0845,2.7449724 0.27634,0.914987 0.90594,1.727056 2.20849,2.171545 0.0826,0.364566 0.12252,0.718949 0.1048,1.058253 -0.0463,0.08294 -0.0935,0.165507 -0.14137,0.24807 -0.846,1.457498 -1.93064,2.838843 -3.42396,4.054313 -0.0456,0.0374 -0.0652,0.0878 -0.0607,0.14854 0.003,0.0441 0.0238,0.10518 0.0577,0.16927 0.0279,0.0528 0.0682,0.11423 0.1165,0.1738 0.11838,0.14552 0.28878,0.27672 0.47503,0.26352 0.0396,-0.003 0.0746,-0.0207 0.0999,-0.0479 z m 10.327289,-2.921413 c -1.31159,-0.218666 -2.52932,-0.367955 -3.7331,-0.426396 -1.26522,-0.06143 -2.513109,-0.02261 -3.835269,0.141379 0.0486,-0.102918 0.11084,-0.200187 0.18511,-0.2918 0.42338,-0.522151 1.23545,-0.848636 2.233379,-0.932707 1.01716,-0.08558 2.21905,0.08294 3.39907,0.553442 0.59831,0.23864 1.19096,0.555329 1.75081,0.956082 z m -7.579679,-0.09425 c 1.32404,-0.166255 2.572309,-0.205842 3.837909,-0.144387 1.24035,0.06029 2.49917,0.21828 3.8643,0.450518 -1.06013,0.601312 -2.31443,1.207162 -3.61548,1.343262 -1.3542,0.14176 -2.769479,-0.22733 -4.086729,-1.649393 z m -2.0181,-7.5284034 c 0.17568,0.349107 0.36682,0.708015 0.5606,1.071447 0.54101,1.0145194 1.1001,2.0633474 1.38964,3.0514744 -1.06428,-0.418093 -1.59058,-1.120456 -1.82772,-1.905004 -0.2164,-0.7166864 -0.1968,-1.5072634 -0.12252,-2.2175404 z m 2.13346,4.0795654 c -0.29406,-1.009615 -0.85994,-2.0705064 -1.40735,-3.0967134 -0.19378,-0.363057 -0.38493,-0.721965 -0.56136,-1.073333 0.33666,0.215646 0.63827,0.464469 0.90217,0.732897 0.55721,0.56626 0.94515,1.218101 1.14157,1.8239484 0.19076,0.588127 0.20057,1.126116 0.007,1.487282 -0.0241,0.04484 -0.0513,0.08709 -0.0822,0.126299 z m 8.582899,-5.7643994 c -1.09557,1.2411 -2.1855,2.226968 -3.37042,3.131403 -1.17815,0.8991534 -2.4494,1.7180094 -3.912559,2.6269674 0.32271,-0.881061 0.591139,-1.769658 0.837329,-2.6522294 1.37117,-0.470501 2.2609,-1.203021 2.82527,-2.068624 0.58285,-0.289917 1.2132,-0.53497 1.87899,-0.717817 0.55646,-0.152687 1.13894,-0.262395 1.74101,-0.319323 z m -7.390049,6.0460224 c 1.555899,-0.963999 2.896519,-1.820555 4.133859,-2.7649514 1.12951,-0.862208 2.17381,-1.797934 3.21849,-2.956093 -0.45467,1.405097 -1.0805,2.948933 -2.11726,4.1327244 -1.15514,1.319141 -2.83093,2.196054 -5.371189,1.937053 0.0464,-0.116122 0.0916,-0.232238 0.1361,-0.348733 z M 84.680028,0.55055761 c 0.21489,0.74948599 0.50405,1.43525699 0.79585,2.12706099 0.48671,1.154011 0.98021,2.324988 1.13742,3.829237 -0.13496,0.521774 -0.18134,1.01829 -0.13496,1.459007 -0.0788,-0.01772 -0.15684,-0.04222 -0.23337,-0.07314 -0.62356,-0.252593 -1.17323,-0.933841 -1.54421,-1.86278 -0.37813,-0.946659 -0.56777,-2.145157 -0.46221,-3.412647 0.0566,-0.679363 0.19831,-1.377576 0.44148,-2.06598599 z m 2.06674,5.51369399 c -0.19982,-1.329696 -0.65184,-2.40152 -1.09822,-3.459395 -0.28351,-0.672199 -0.56438,-1.338744 -0.77512,-2.06070799 0.51725,0.48709099 1.04845,1.01942099 1.49784,1.61508799 0.53045,0.703491 0.945899,1.495955 1.085399,2.408683 6.3e-4,0.006 0.003,0.01207 0.004,0.01809 -0.30725,0.491991 -0.546649,0.992654 -0.714039,1.478235 z m 3.661839,-3.98117 c -0.66465,1.108394 -1.30066,2.200954 -1.83488,3.305578 -0.58247,1.204907 -1.04279,2.422632 -1.28445,3.68786 l -0.006,0.0019 c -0.008,-0.01886 -0.0189,-0.03658 -0.0343,-0.05165 -0.10179,-0.100282 -0.18699,-0.215645 -0.255979,-0.344582 -0.31744,-0.592651 -0.30425,-1.468055 0.005,-2.42037 0.3148,-0.97041 0.93535,-2.013205 1.82659,-2.919147 0.45844,-0.466355 0.98813,-0.895763 1.58418,-1.25995 z m -2.91274,6.917282 c 0.24355,-1.206791 0.68804,-2.373621 1.24714,-3.529894 0.54552,-1.128375 1.20114,-2.248833 1.8854,-3.387765 0.14288,1.206038 0.21338,2.5904 -0.16362,3.838663 -0.12253,0.406033 -0.29331,0.798119 -0.52517,1.166075 -0.0257,0.02073 -0.0434,0.04863 -0.0513,0.07955 -0.49577,0.749862 -1.25468,1.392656 -2.39248,1.833751 z m -1.834119,4.2861644 c -0.0995,0.223188 -0.20396,0.445622 -0.31367,0.66655 -0.75288,1.51782 -1.75383,2.974933 -3.18154,4.292193 -0.0592,-0.0189 -0.1248,-0.0807 -0.17908,-0.14703 -0.034,-0.0419 -0.0626,-0.086 -0.0837,-0.12555 l -10e-4,-0.003 c 1.48803,-1.22677 2.57343,-2.615278 3.42244,-4.077671 0.1165,-0.200947 0.22847,-0.403021 0.33667,-0.606228 z"
     style="fill:#ffffff;stroke-width:0.000377004" />
  <path
     id="path110"
     style="fill:#ffffff;stroke-width:0.50649"
     d="M 6.543854,10.797021 5.2675,15.112314 H 3.545435 L 6e-6,1.4573486 H 1.316879 L 2.593234,6.5222466 4.436857,13.83596 Q 5.794249,8.9939176 6.523595,6.5222466 v 0 l 1.418171,-4.862302 h 1.47895 l 1.51947,4.882562 2.269074,7.3744914 q 1.114277,-5.1864554 1.600508,-7.3542314 v 0 l 1.134537,-5.105418 h 1.256094 L 14.100682,15.112314 H 12.378617 L 11.021224,10.797021 8.71163,3.3009716 Q 7.941766,6.0967956 6.543854,10.797021 Z M 22.60971,1.4573486 V 15.112314 H 21.353616 V 1.4573486 Z m 12.459649,0 v 1.154797 H 31.280816 V 15.112314 H 30.024721 V 2.6121456 H 26.256437 V 1.4573486 Z M 45.887981,13.957518 v 1.154796 H 38.614788 V 1.4573486 h 1.256094 V 13.957518 Z M 61.204232,8.2240526 v 0 q 0,3.2415354 -1.600508,5.1459364 -1.600508,1.904402 -4.355812,1.904402 v 0 q -2.714785,0 -4.365942,-1.924661 -1.651157,-1.924661 -1.651157,-5.1256774 v 0 q 0,-3.221275 1.610638,-5.135806 1.610637,-1.914532 4.365942,-1.914532 v 0 q 2.836343,0 4.416591,1.894272 1.580248,1.894272 1.580248,5.156066 z m -10.676805,0 v 0 q 0,2.6945264 1.286484,4.2646444 1.286484,1.570118 3.434001,1.570118 v 0 q 2.228555,0 3.444131,-1.549858 1.215575,-1.549859 1.215575,-4.2849044 v 0 q 0,-2.755304 -1.225705,-4.295033 -1.225706,-1.539729 -3.47452,-1.539729 v 0 q -2.188036,0 -3.434001,1.549858 -1.245965,1.549859 -1.245965,4.284904 z m 19.287131,1.073758 -3.666986,5.8145034 h -1.45869 l 4.416591,-6.8882614 -4.153217,-6.766704 h 1.458691 l 3.383352,5.632167 3.383352,-5.632167 h 1.45869 l -4.132956,6.766704 4.639446,6.8882614 H 73.68414 Z" />
  <path
     id="path112"
     style="fill:#ffffff;stroke-width:0.491421"
     d="m 8.924213,20.192108 q 1.926372,0 2.919043,0.796104 0.99267,0.796102 0.99267,2.172074 v 0 q 0,1.533237 -0.9337,2.751966 -0.9337,1.218719 -2.624188,1.906709 -1.69049,0.688 -3.852743,0.688 v 0 H 4.83559 l -0.923872,3.49891 q -0.03931,0.1376 -0.117942,0.46194 -0.07863,0.32434 -0.07863,0.5209 v 0 q 0,0.37348 0.294852,0.53074 0.294853,0.15725 1.061471,0.17691 v 0 l -0.07863,0.39313 q -0.904214,-0.0589 -2.43745,-0.0589 v 0 q -1.7298,0 -2.555389,0.0589 v 0 l 0.07863,-0.39313 q 0.707647,-0.0393 1.061469,-0.15726 0.353824,-0.11794 0.56022,-0.45209 0.206398,-0.33419 0.402966,-1.08114 v 0 L 4.697988,22.256076 Q 4.8749,21.548423 4.8749,21.312553 v 0 q 0,-0.393146 -0.294852,-0.560222 -0.294853,-0.167088 -1.041813,-0.186746 v 0 l 0.09829,-0.393134 q 0.786275,0.05898 2.417792,0.05898 v 0 q 0.94353,0 1.415293,-0.01962 v 0 z m -3.30235,7.921713 q 2.751959,0 3.99034,-1.43495 1.238382,-1.43496 1.238382,-3.833081 v 0 q 0,-1.15977 -0.589705,-1.719982 -0.589706,-0.560223 -1.906714,-0.560223 v 0 q -0.589706,0 -0.923873,0.147432 -0.334166,0.14742 -0.540563,0.501252 -0.206396,0.353811 -0.383308,1.041807 v 0 l -1.552891,5.857745 z m 8.747298,5.68082 q 0.196568,0.0983 0.383309,0.1376 0.186739,0.0393 0.520906,0.0393 v 0 q 0.884558,0 1.43495,-0.53074 0.550392,-0.53074 0.550392,-1.49392 v 0 q 0,-0.62901 -0.235882,-1.22855 -0.235883,-0.59954 -0.786274,-1.36615 v 0 q -0.668334,-0.90422 -0.973014,-1.4841 -0.304683,-0.57987 -0.304683,-1.36614 v 0 q 0,-0.805941 0.412795,-1.444779 0.412794,-0.63885 1.110612,-0.992672 0.697818,-0.353821 1.523405,-0.353821 v 0 q 1.022157,0 1.710146,0.383302 0.68799,0.383311 0.68799,1.326835 v 0 q 0,0.353832 -0.226054,0.687995 -0.226054,0.33417 -0.678161,0.33417 v 0 q -0.334167,0 -0.56022,-0.23588 -0.226054,-0.235885 -0.226054,-0.589706 v 0 q 0,-0.629028 0.550392,-1.317013 v 0 Q 18.890236,24.06447 18.280874,24.06447 v 0 q -0.74696,0 -1.228554,0.501253 -0.481592,0.501252 -0.481592,1.366149 v 0 q 0,0.511079 0.176911,0.874729 0.176913,0.36365 0.648676,1.0713 v 0 l 0.353823,0.51107 q 0.589706,0.90421 0.87473,1.5529 0.285024,0.64867 0.285024,1.33667 v 0 q 0,0.88455 -0.461935,1.59219 -0.461936,0.70765 -1.238382,1.10079 -0.776445,0.39313 -1.680661,0.39313 v 0 q -1.12044,0 -1.887057,-0.48159 -0.766616,-0.48159 -0.766616,-1.46444 v 0 q 0,-0.33416 0.186739,-0.60936 0.18674,-0.27519 0.579877,-0.27519 v 0 q 0.432452,0 0.648678,0.35382 0.216223,0.35382 0.216223,0.88456 v 0 q 0,0.33417 -0.137597,1.02216 z M 29.662189,23.710686 q 1.022157,0 1.022157,1.592196 v 0 q 0,1.867409 -1.159755,4.324509 -1.159755,2.45711 -2.712645,4.40313 v 0 q -1.828088,2.2802 -3.872399,3.26304 v 0 q -1.041814,0.49143 -1.710145,0.49143 v 0 q -0.412794,0 -0.69782,-0.21624 -0.285023,-0.21622 -0.285023,-0.58969 v 0 q 0,-0.4128 0.314509,-0.64869 0.31451,-0.23588 0.74696,-0.23588 v 0 q 0.412794,0 0.796102,0.2064 0.38331,0.20639 0.835417,0.56021 v 0 q 1.533233,-0.82558 2.948525,-2.35882 v 0 l -1.454605,-8.806265 q -0.09829,-0.609358 -0.235882,-0.845239 -0.137598,-0.235881 -0.393137,-0.235881 v 0 q -0.255538,0 -0.520907,0.383312 -0.265367,0.383301 -0.638847,1.425113 v 0 l -0.255538,0.72731 h -0.373482 l 0.491422,-1.434957 q 0.68799,-2.004988 2.260538,-2.004988 v 0 q 0.629018,0 0.953357,0.393136 0.324337,0.393134 0.461936,1.415295 v 0 l 1.002499,7.390954 q 1.081126,-1.4939 1.867401,-3.13526 0.786273,-1.64134 1.100783,-3.2532 v 0 Q 29.563905,26.207101 29.111797,25.745163 28.65969,25.283225 28.65969,24.713179 v 0 q 0,-0.452105 0.285024,-0.727298 0.285024,-0.275195 0.717475,-0.275195 z m 8.806267,0.393136 q -0.982842,0 -1.955856,1.061462 -0.973014,1.061477 -1.592204,2.810937 -0.619191,1.74945 -0.619191,3.67582 v 0 q 0,0.96318 0.363651,1.42513 0.363653,0.46193 1.012327,0.46193 v 0 q 1.611863,0 2.948529,-1.96569 v 0 l 0.393136,0.15727 q -0.629019,1.08113 -1.700317,1.85755 -1.071298,0.77646 -2.25071,0.77646 v 0 q -1.199065,0 -1.896885,-0.73714 -0.697819,-0.73713 -0.697819,-2.15242 v 0 q 0,-1.5922 0.746962,-3.42029 0.74696,-1.82808 2.103282,-3.086124 1.356323,-1.258031 3.086124,-1.258031 v 0 q 0.904216,0 1.513579,0.452105 0.609363,0.452105 0.609363,1.218718 v 0 q 0,0.609369 -0.393138,1.090952 -0.393136,0.48159 -1.002498,0.48159 v 0 q -0.393139,0 -0.599536,-0.21622 -0.206395,-0.21622 -0.206395,-0.55038 v 0 q 0,-0.550394 0.432451,-0.953362 0.432449,-0.402969 1.041812,-0.52091 v 0 q -0.412794,-0.609357 -1.336667,-0.609357 z m 12.305188,6.801259 h 0.373479 l -0.49142,1.43495 q -0.707647,2.02466 -2.378479,2.02466 v 0 q -1.375979,0 -1.375979,-1.21873 v 0 q 0,-0.58971 0.31451,-1.53323 v 0 l 1.8674,-5.621853 q 0.196568,-0.550399 0.196568,-0.982847 v 0 q 0,-0.668329 -0.629018,-0.668329 v 0 q -0.727304,0 -1.562721,0.914044 -0.835416,0.914045 -1.680659,2.565215 -0.845246,1.65118 -1.572549,3.83308 v 0 l -0.707646,2.43745 h -1.710145 l 3.892056,-13.111114 q 0.09829,-0.334164 0.09829,-0.530732 v 0 q 0,-0.393134 -0.314511,-0.579868 -0.314509,-0.186744 -1.041813,-0.186744 v 0 l 0.11794,-0.412792 q 2.044312,-0.01963 3.538232,-0.805937 v 0 l -2.850242,9.749797 q 1.06147,-2.398132 2.12294,-3.449773 1.06147,-1.051642 2.319507,-1.051642 v 0 q 1.592204,0 1.592204,1.493923 v 0 q 0,0.629005 -0.294853,1.474262 v 0 l -1.906712,5.73978 q -0.157256,0.47177 -0.157256,0.74696 v 0 q 0,0.47178 0.471764,0.47178 v 0 q 0.393138,0 0.75679,-0.44228 0.36365,-0.44229 0.756789,-1.56273 v 0 z m 2.751958,0.37349 q 0,-1.5529 0.68799,-3.33184 0.68799,-1.77894 1.985342,-3.007505 1.297352,-1.22854 3.007498,-1.22854 v 0 q 1.258038,0 1.975514,0.776446 0.717475,0.776437 0.717475,2.309669 v 0 q 0,1.55289 -0.68799,3.33185 -0.68799,1.77894 -1.985344,3.00748 -1.29735,1.22856 -3.007496,1.22856 v 0 q -1.258038,0 -1.975514,-0.77646 -0.717475,-0.77642 -0.717475,-2.30966 z m 5.562888,-7.174749 q -1.002499,0 -1.896885,1.277687 -0.894386,1.277702 -1.43495,3.194242 -0.540563,1.91654 -0.540563,3.68566 v 0 q 0,0.88455 0.275194,1.29735 0.275198,0.4128 0.845247,0.4128 v 0 q 1.002499,0 1.896885,-1.27771 0.894385,-1.27768 1.43495,-3.19423 0.540562,-1.91654 0.540562,-3.685652 v 0 q 0,-0.884554 -0.275195,-1.297357 -0.275196,-0.41279 -0.845245,-0.41279 z m 9.258375,0.275193 -2.280193,8.039636 q -0.05897,0.2359 -0.05897,0.43246 v 0 q 0,0.39314 0.235882,0.58971 0.235882,0.19657 0.609362,0.19657 v 0 q 0.491422,0 0.914044,-0.42262 0.422622,-0.42262 0.835416,-1.54307 v 0 l 0.275197,-0.76662 h 0.373478 l -0.412792,1.23839 q -0.412795,1.21872 -1.071299,1.71996 -0.658503,0.50126 -1.62169,0.50126 v 0 q -0.884559,0 -1.317009,-0.43245 -0.43245,-0.43245 -0.43245,-1.19907 v 0 q 0,-0.51108 0.17691,-1.12044 v 0 l 2.083628,-7.233716 h -1.769122 l 0.09829,-0.393134 h 1.769116 l 0.864903,-2.987847 q 1.061469,-0.03936 1.769115,-0.275194 v 0 l -0.923872,3.263041 h 2.594705 l -0.05897,0.393134 z m 12.10862,6.526066 h 0.373479 l -0.491421,1.43495 q -0.707646,2.02466 -2.378478,2.02466 v 0 q -1.37598,0 -1.37598,-1.21873 v 0 q 0,-0.58971 0.31451,-1.53323 v 0 l 1.8674,-5.621853 q 0.196569,-0.550399 0.196569,-0.982847 v 0 q 0,-0.668329 -0.629019,-0.668329 v 0 q -0.727304,0 -1.562719,0.914044 -0.835416,0.914045 -1.680661,2.565215 -0.845244,1.65118 -1.572547,3.83308 v 0 l -0.707647,2.43745 h -1.710147 l 3.892057,-13.111114 q 0.09829,-0.334164 0.09829,-0.530732 v 0 q 0,-0.393134 -0.314509,-0.579868 -0.314511,-0.186744 -1.041813,-0.186744 v 0 l 0.11794,-0.412792 q 2.044314,-0.01963 3.538235,-0.805937 v 0 l -2.850244,9.749797 q 1.061469,-2.398132 2.122938,-3.449773 1.061471,-1.051642 2.31951,-1.051642 v 0 q 1.592204,0 1.592204,1.493923 v 0 q 0,0.629005 -0.294853,1.474262 v 0 l -1.906715,5.73978 q -0.157255,0.47177 -0.157255,0.74696 v 0 q 0,0.47178 0.471765,0.47178 v 0 q 0.393138,0 0.756788,-0.44228 0.363653,-0.44229 0.75679,-1.56273 v 0 z m 10.516422,-5.89705 q 0,1.5922 -1.78878,2.79128 -1.78878,1.19905 -4.088626,1.94603 v 0 q -0.216226,0.98284 -0.216226,1.9067 v 0 q 0,1.88706 1.356323,1.88706 v 0 q 1.690489,0 3.027149,-1.96569 v 0 l 0.31452,0.15727 q -0.62903,1.08113 -1.70032,1.85755 -1.071301,0.77646 -2.250711,0.77646 v 0 q -1.218725,0 -1.906716,-0.70765 -0.687988,-0.70763 -0.687988,-2.06396 v 0 q 0,-1.49392 0.87473,-3.37116 0.874729,-1.87722 2.36865,-3.194233 1.493925,-1.317002 3.243375,-1.317002 v 0 q 0.62902,0 1.04181,0.334154 0.41281,0.334175 0.41281,0.963191 z m -1.88706,-0.923867 q -0.62903,0 -1.40547,0.737133 -0.776447,0.737122 -1.454606,1.955844 -0.678163,1.21873 -1.031986,2.59471 v 0 q 1.867402,-0.64868 2.673332,-1.25803 v 0 q 0.7273,-0.57006 1.13027,-1.38583 0.40296,-0.815739 0.40296,-1.759274 v 0 q 0,-0.530732 -0.0786,-0.707643 -0.0787,-0.17691 -0.23587,-0.17691 z m 10.88989,-0.373478 q 0.530733,0 0.845243,0.314508 0.3145,0.314508 0.3145,0.805926 v 0 q 0,0.589702 -0.41279,1.002494 -0.41278,0.412797 -0.963173,0.412797 v 0 q -0.35383,0 -0.57006,-0.18674 -0.21623,-0.186732 -0.21623,-0.520909 v 0 q 0,-0.452104 0.23589,-0.766601 0.23588,-0.314518 0.64869,-0.49143 v 0 q -0.0786,-0.0786 -0.21624,-0.0786 v 0 q -1.06147,0 -2.30968,2.29003 -1.24821,2.29002 -2.34899,6.04447 v 0 l -0.39315,1.55288 h -1.71014 l 2.35883,-8.43277 q 0.1376,-0.432448 0.1376,-0.766624 v 0 q 0,-0.452105 -0.4128,-0.452105 v 0 q -0.43245,0 -0.79609,0.461938 -0.36366,0.46194 -0.73715,1.543051 v 0 l -0.25553,0.72731 h -0.37349 l 0.49143,-1.434943 q 0.70764,-2.024656 2.37848,-2.024656 v 0 q 1.12044,0 1.12044,1.140091 v 0 q 0,0.550389 -0.2752,1.611858 v 0 l -0.62902,2.47676 q 1.06148,-2.85023 1.99517,-4.039471 0.93371,-1.189238 2.09346,-1.189238 z m 9.907063,7.902045 0.23588,-0.72729 h 0.37347 l -0.49142,1.43494 q -0.39314,1.08112 -1.0025,1.56271 -0.60936,0.4816 -1.25803,0.4816 v 0 q -0.37349,0 -0.64868,-0.1376 -0.2752,-0.1376 -0.43245,-0.37348 v 0 q -0.17692,-0.29485 -0.17692,-0.688 v 0 q 0,-0.41279 0.1376,-0.92386 0.1376,-0.51107 0.17692,-0.64867 v 0 l 0.35382,-1.41531 q -0.94353,2.20158 -1.91654,3.19425 -0.97303,0.99267 -2.03449,0.99267 v 0 q -0.90421,0 -1.37598,-0.64868 -0.47177,-0.64866 -0.47177,-1.7298 v 0 q 0,-1.5922 0.84525,-3.55788 0.84525,-1.96569 2.20156,-3.341673 1.35634,-1.375972 2.75197,-1.375972 v 0 q 0.53073,0 0.8649,0.393136 0.33417,0.393134 0.39314,1.100787 v 0 l 0.3145,-1.218728 q 1.08114,-0.03935 1.80843,-0.275195 v 0 l -2.4571,8.688325 q -0.0196,0.0786 -0.0787,0.30468 -0.059,0.22606 -0.059,0.42262 v 0 q 0,0.49143 0.43244,0.49143 v 0 q 0.86491,0 1.51359,-2.00501 z m -6.11329,2.12294 q 0.5504,0 1.317,-0.84525 0.76663,-0.84523 1.50376,-2.2507 0.73712,-1.40546 1.20889,-2.99768 v 0 l 0.35382,-1.39563 q 0.0196,-0.15725 0.0196,-0.432442 v 0 q 0,-0.805938 -0.28503,-1.267866 -0.28501,-0.461939 -0.7961,-0.461939 v 0 q -0.84524,0 -1.78878,1.307178 -0.94352,1.307179 -1.58237,3.223719 -0.63885,1.91654 -0.63885,3.60703 v 0 q 0,0.80593 0.17692,1.15976 0.1769,0.35382 0.51107,0.35382 z m 16.70831,-10.024985 q 0.9632,0 1.50375,0.697821 0.54059,0.697807 0.54059,2.073794 v 0 q 0,1.5922 -0.70767,3.44977 -0.70765,1.85756 -2.02464,3.1451 -1.31702,1.28752 -3.02716,1.28752 v 0 q -0.53074,0 -0.96319,-0.30468 -0.43245,-0.30468 -0.62903,-0.83541 v 0 l -0.74696,2.59469 q -0.0786,0.23589 -0.0786,0.47177 v 0 q 0,0.51109 0.43246,0.7273 0.43244,0.21624 1.23837,0.21624 v 0 l -0.11794,0.41279 -0.41279,-0.0196 q -1.71013,-0.0589 -2.22123,-0.0589 v 0 q -0.53073,0 -2.18191,0.0786 v 0 l 0.11796,-0.41279 q 0.70764,0 1.02215,-0.25554 0.31451,-0.25556 0.51107,-0.96319 v 0 l 3.67579,-13.111122 q -0.58971,1.317012 -1.37599,2.319516 -0.78627,1.002496 -1.94603,2.103266 v 0 l -0.21622,-0.25553 q 0.92388,-0.90421 1.54307,-1.611853 0.61918,-0.707655 1.23838,-1.719971 0.61919,-1.012339 1.22855,-2.486606 v 0 l 0.0786,-0.275194 q 1.06146,-0.03936 1.78878,-0.275193 v 0 l -2.04433,7.155087 q 0.92388,-2.181901 1.83792,-3.164748 0.91405,-0.982837 1.93619,-0.982837 z m -3.73479,10.201905 q 1.0418,0 1.98533,-1.30718 0.94354,-1.30719 1.52341,-3.1746 0.57988,-1.86738 0.57988,-3.38096 v 0 q 0,-0.845242 -0.2457,-1.27769 -0.24572,-0.432459 -0.67817,-0.432459 v 0 q -0.55039,0 -1.28751,0.894387 -0.73715,0.894392 -1.4841,2.407952 -0.74696,1.51358 -1.31701,3.30235 v 0 l -0.51108,1.78878 q 0.23587,0.62902 0.58971,0.90422 0.35382,0.2752 0.84524,0.2752 z m 15.4896,-10.201905 q 1.02214,0 1.02214,1.592196 v 0 q 0,1.867409 -1.15974,4.324509 -1.15975,2.45711 -2.71266,4.40313 v 0 q -1.82808,2.2802 -3.87239,3.26304 v 0 q -1.04181,0.49143 -1.71015,0.49143 v 0 q -0.41279,0 -0.69781,-0.21624 -0.28502,-0.21622 -0.28502,-0.58969 v 0 q 0,-0.4128 0.3145,-0.64869 0.3145,-0.23588 0.74696,-0.23588 v 0 q 0.41279,0 0.79612,0.2064 0.38329,0.20639 0.8354,0.56021 v 0 q 1.53324,-0.82558 2.94853,-2.35882 v 0 l -1.45461,-8.806265 q -0.0983,-0.609358 -0.23588,-0.845239 -0.13759,-0.235881 -0.39314,-0.235881 v 0 q -0.25554,0 -0.52091,0.383312 -0.26535,0.383301 -0.63884,1.425113 v 0 l -0.25554,0.72731 h -0.37347 l 0.49141,-1.434957 q 0.68799,-2.004988 2.26054,-2.004988 v 0 q 0.62902,0 0.95337,0.393136 0.32434,0.393134 0.46193,1.415295 v 0 l 1.0025,7.390954 q 1.08112,-1.4939 1.86739,-3.13526 0.78627,-1.64134 1.10078,-3.2532 v 0 q -0.5897,-0.31451 -1.04181,-0.776448 -0.45211,-0.461938 -0.45211,-1.031984 v 0 q 0,-0.452105 0.28503,-0.727298 0.28503,-0.275195 0.71748,-0.275195 z" />
</svg>
