<?xml version="1.0" encoding="UTF-8" standalone="no"?>
<svg
   xmlns:dc="http://purl.org/dc/elements/1.1/"
   xmlns:cc="http://creativecommons.org/ns#"
   xmlns:rdf="http://www.w3.org/1999/02/22-rdf-syntax-ns#"
   xmlns:svg="http://www.w3.org/2000/svg"
   xmlns="http://www.w3.org/2000/svg"
   xmlns:sodipodi="http://sodipodi.sourceforge.net/DTD/sodipodi-0.dtd"
   xmlns:inkscape="http://www.inkscape.org/namespaces/inkscape"
   inkscape:version="1.0 (4035a4fb49, 2020-05-01)"
   inkscape:export-ydpi="96"
   inkscape:export-xdpi="96"
   inkscape:export-filename="C:\Users\null\Downloads\witloxpsychotherpy2\assets\img\logo2.png"
   sodipodi:docname="logo4.svg"
   id="svg5"
   version="1.1"
   viewBox="0 0 235.05124 19.930027"
   height="19.930027mm"
   width="235.05124mm">
  <metadata
     id="metadata159">
    <rdf:RDF>
      <cc:Work
         rdf:about="">
        <dc:format>image/svg+xml</dc:format>
        <dc:type
           rdf:resource="http://purl.org/dc/dcmitype/StillImage" />
      </cc:Work>
    </rdf:RDF>
  </metadata>
  <sodipodi:namedview
     inkscape:document-rotation="0"
     inkscape:current-layer="svg5"
     inkscape:window-maximized="1"
     inkscape:window-y="-6"
     inkscape:window-x="-6"
     inkscape:window-height="1018"
     inkscape:window-width="1920"
     inkscape:cy="99.383746"
     inkscape:cx="1162.1024"
     inkscape:zoom="0.64"
     showgrid="false"
     inkscape:document-units="mm"
     inkscape:pagecheckerboard="0"
     inkscape:pageopacity="0.0"
     inkscape:pageshadow="2"
     borderopacity="1.0"
     bordercolor="#666666"
     pagecolor="#ffffff"
     id="namedview7" />
  <defs
     id="defs2">
    <rect
       id="rect43709"
       height="69.140625"
       width="498.04688"
       y="1.953125"
       x="346.48438" />
    <rect
       id="rect9023"
       height="51.609322"
       width="284.00439"
       y="6.9369931"
       x="0" />
  </defs>
  <g
     transform="translate(-15.867778,-79.33759)"
     id="layer1"
     inkscape:groupmode="layer"
     inkscape:label="Layer 1" />
  <path
     style="fill:#738171"
     d="m 75.143761,18.50352 c 0.99643,-0.91235 1.7904,-1.88993 2.43922,-2.907842 1.41754,1.584932 2.95459,1.994732 4.42566,1.840542 1.477103,-0.15457 2.876553,-0.87918 4.020003,-1.545721 0.072,-0.04148 0.0965,-0.133835 0.0547,-0.205468 -0.0105,-0.01849 -0.0249,-0.03394 -0.0407,-0.0456 -0.69294,-0.560978 -1.4477,-0.987747 -2.21151,-1.292365 -1.22564,-0.488978 -2.475793,-0.663528 -3.534423,-0.574936 -0.82752,0.06937 -1.5427,0.30085 -2.046,0.670691 0.0622,-0.118376 0.1229,-0.237513 0.18209,-0.356643 0.18586,-0.374743 0.35665,-0.753255 0.51536,-1.133654 0.0143,0.0064 0.0301,0.01089 0.0467,0.01248 2.67748,0.283883 4.445643,-0.640914 5.666013,-2.034695 1.20942,-1.3809725 1.87069,-3.2169832 2.34836,-4.7849462 0.0241,-0.07955 -0.0207,-0.163243 -0.10028,-0.187371 -0.0177,-0.0053 -0.0354,-0.0072 -0.0531,-0.006 v -3.8e-4 c -0.72271,0.04788 -1.42168,0.170783 -2.08596,0.352876 -0.53799,0.147786 -1.0526,0.334026 -1.53781,0.551181 0.13761,-0.273329 0.24807,-0.556836 0.33591,-0.84713 0.42903,-1.420554 0.30274,-2.991909 0.13044,-4.3050163 -0.0106,-0.08219 -0.0863,-0.140246 -0.16851,-0.129689 -0.0207,0.0027 -0.04,0.0094 -0.0569,0.0196 -0.78643,0.4222445 -1.472213,0.9526895 -2.048273,1.5385543 -0.3427,0.348353 -0.64656,0.716309 -0.91047,1.093314 -0.1851,-0.844113 -0.58812,-1.5849278 -1.08765,-2.2473243 -0.55005,-0.729127 -1.21849,-1.36362579 -1.83903,-1.93818089 -0.0607,-0.05617 -0.15571,-0.05241 -0.21226,0.0083 -0.0129,0.01357 -0.0223,0.02903 -0.029,0.04562 l -3.8e-4,-3.79e-4 c -0.33591,0.82903291 -0.52479,1.67766989 -0.59302,2.49878639 -0.10971,1.3134838 0.0886,2.5602388 0.48332,3.5479908 0.4015,1.005095 1.00999,1.747418 1.71047,2.031302 0.13007,0.05278 0.26277,0.08973 0.39812,0.110085 0.0445,0.19642 0.11008,0.378137 0.19792,0.542133 0.0837,0.1564579 0.187,0.2963239 0.31028,0.4177219 0.004,0.0038 0.008,0.0075 0.012,0.01092 -0.46523,1.3089603 -0.9821,2.6277213 -1.65694,3.8974773 -0.0124,-0.2394 -0.0483,-0.484076 -0.10367,-0.732527 0.0185,-0.01697 0.0328,-0.03844 0.0411,-0.0637 0.003,-0.0083 0.005,-0.01697 0.006,-0.02559 0.0803,-0.07955 0.14741,-0.171542 0.20246,-0.273706 0.23299,-0.435064 0.22997,-1.057118 0.0143,-1.72178 -0.20999,-0.6469455 -0.62244,-1.3406303 -1.21358,-1.9419542 -0.36758,-0.373611 -0.8049,-0.712162 -1.30632,-0.98172 -0.017,-0.01018 -0.0362,-0.01697 -0.0569,-0.0196 -0.0822,-0.01056 -0.15759,0.04712 -0.16852,0.12969 -0.10971,0.83582 -0.19001,1.8371427 0.0845,2.7449732 0.27634,0.914987 0.90594,1.727055 2.20849,2.171544 0.0826,0.364566 0.12252,0.718949 0.1048,1.058253 -0.0463,0.08294 -0.0935,0.165507 -0.14137,0.24807 -0.846,1.457498 -1.93064,2.838843 -3.42396,4.054313 -0.0456,0.0374 -0.0652,0.0878 -0.0607,0.14854 0.003,0.0441 0.0238,0.10518 0.0577,0.16927 0.0279,0.0528 0.0682,0.11423 0.1165,0.1738 0.11838,0.14552 0.28878,0.27672 0.47503,0.26352 0.0396,-0.003 0.0746,-0.0207 0.0999,-0.0479 z m 10.327293,-2.921413 c -1.31159,-0.218666 -2.52932,-0.367955 -3.733103,-0.426396 -1.26522,-0.06143 -2.51311,-0.02261 -3.83527,0.141379 0.0486,-0.102918 0.11084,-0.200187 0.18511,-0.2918 0.42338,-0.522151 1.23545,-0.848636 2.23338,-0.932707 1.01716,-0.08558 2.219053,0.08294 3.399073,0.553442 0.59831,0.23864 1.19096,0.555329 1.75081,0.956082 z m -7.579683,-0.09425 c 1.32404,-0.166255 2.57231,-0.205842 3.83791,-0.144387 1.240353,0.06029 2.499173,0.21828 3.864303,0.450518 -1.06013,0.601312 -2.31443,1.207162 -3.615483,1.343262 -1.3542,0.14176 -2.76948,-0.22733 -4.08673,-1.649393 z m -2.0181,-7.5284032 c 0.17568,0.349107 0.36682,0.708015 0.5606,1.0714469 0.54101,1.0145203 1.1001,2.0633483 1.38964,3.0514743 -1.06428,-0.418092 -1.59058,-1.120455 -1.82772,-1.905003 -0.2164,-0.7166875 -0.1968,-1.5072642 -0.12252,-2.2175412 z m 2.13346,4.0795652 c -0.29406,-1.009614 -0.85994,-2.0705075 -1.40735,-3.0967133 -0.19378,-0.3630569 -0.38493,-0.7219649 -0.56136,-1.0733329 0.33666,0.215646 0.63827,0.464469 0.90217,0.732897 0.55721,0.5662599 0.94515,1.2180997 1.14157,1.8239492 0.19076,0.588127 0.20057,1.126116 0.007,1.487281 -0.0241,0.04484 -0.0513,0.08709 -0.0822,0.126299 z m 8.582903,-5.7643992 c -1.09557,1.2411 -2.1855,2.226968 -3.37042,3.1314027 -1.178153,0.8991545 -2.449403,1.7180105 -3.912563,2.6269675 0.32271,-0.88106 0.59114,-1.769657 0.83733,-2.6522295 1.37117,-0.4705007 2.260903,-1.2030207 2.825273,-2.0686237 0.58285,-0.289917 1.2132,-0.53497 1.87899,-0.717817 0.55646,-0.152687 1.13894,-0.262395 1.74101,-0.319323 z m -7.390053,6.0460222 c 1.5559,-0.963998 2.89652,-1.820554 4.133863,-2.7649525 1.12951,-0.8622067 2.17381,-1.7979327 3.21849,-2.9560917 -0.45467,1.405097 -1.0805,2.9489317 -2.11726,4.1327252 -1.15514,1.31914 -2.830933,2.196053 -5.371193,1.937052 0.0464,-0.116122 0.0916,-0.232238 0.1361,-0.348733 z M 77.494391,0.55055771 c 0.21489,0.74948579 0.50405,1.43525679 0.79585,2.12706029 0.48671,1.1540108 0.98021,2.3249878 1.13742,3.8292368 -0.13496,0.521774 -0.18134,1.01829 -0.13496,1.459007 -0.0788,-0.01772 -0.15684,-0.04222 -0.23337,-0.07314 -0.62356,-0.252593 -1.17323,-0.933841 -1.54421,-1.86278 -0.37813,-0.946659 -0.56777,-2.145157 -0.46221,-3.4126468 0.0566,-0.6793625 0.19831,-1.3775755 0.44148,-2.06598529 z m 2.06674,5.51369309 c -0.19982,-1.329696 -0.65184,-2.40152 -1.09822,-3.4593948 -0.28351,-0.6721985 -0.56438,-1.3387435 -0.77512,-2.06070729 0.51725,0.48709079 1.04845,1.01942079 1.49784,1.61508729 0.53045,0.703491 0.9459,1.4959548 1.0854,2.4086828 6.3e-4,0.006 0.003,0.01207 0.004,0.01809 -0.30725,0.491991 -0.54665,0.992654 -0.71404,1.478235 z M 83.222974,2.083081 c -0.66465,1.1083938 -1.300663,2.2009538 -1.834883,3.3055778 -0.58247,1.204907 -1.04279,2.422632 -1.28445,3.6878599 l -0.006,0.0019 c -0.008,-0.01886 -0.0189,-0.03658 -0.0343,-0.05165 -0.10179,-0.1002819 -0.18699,-0.2156449 -0.25598,-0.3445819 -0.31744,-0.592651 -0.30425,-1.468055 0.005,-2.42037 0.3148,-0.97041 0.93535,-2.013205 1.82659,-2.919147 C 82.097391,2.876315 82.627084,2.446907 83.223134,2.08272 Z m -2.912743,6.9172817 c 0.24355,-1.2067909 0.68804,-2.3736209 1.24714,-3.5298939 0.54552,-1.128375 1.201143,-2.248833 1.885403,-3.3877648 0.14288,1.2060378 0.21338,2.5903998 -0.16362,3.8386628 -0.12253,0.406033 -0.29331,0.798119 -0.52517,1.166075 -0.0257,0.02073 -0.0434,0.04863 -0.0513,0.07955 -0.495773,0.749862 -1.254683,1.392656 -2.392483,1.8337509 z m -1.83412,4.2861643 c -0.0995,0.223188 -0.20396,0.445622 -0.31367,0.66655 -0.75288,1.51782 -1.75383,2.974933 -3.18154,4.292193 -0.0592,-0.0189 -0.1248,-0.0807 -0.17908,-0.14703 -0.034,-0.0419 -0.0626,-0.086 -0.0837,-0.12555 l -10e-4,-0.003 c 1.48803,-1.22677 2.57343,-2.615278 3.42244,-4.077671 0.1165,-0.200947 0.22847,-0.403021 0.33667,-0.606228 z"
     id="path9" />
  <text
     inkscape:label="text9021"
     style="font-style:normal;font-weight:normal;font-size:40px;line-height:1.25;font-family:sans-serif;white-space:pre;shape-inside:url(#rect9023);fill:#738171;fill-opacity:1;stroke:none;"
     id="text9021"
     transform="matrix(0.47907054,0,0,0.47907054,-0.23392116,-4.3313345)"
     xml:space="preserve"><tspan
       x="0"
       y="42.967677"><tspan
         style="font-family:Arial;-inkscape-font-specification:Arial">WITLOX</tspan></tspan></text>
  <text
     style="font-style:normal;font-weight:normal;font-size:40px;line-height:1.25;font-family:sans-serif;white-space:pre;shape-inside:url(#rect43709);fill:#738171;fill-opacity:1;stroke:none;"
     id="text43707"
     transform="matrix(0.5,0,0,0.5,-86.579619,-2.9020035)"
     xml:space="preserve"><tspan
       x="346.48438"
       y="37.34375"><tspan
         style="font-style:italic;font-family:'Linux Libertine G';-inkscape-font-specification:'Linux Libertine G Italic'">Psychotherapy</tspan></tspan></text>
</svg>
