<?xml version="1.0" encoding="UTF-8" standalone="no"?>
<!-- Created with Inkscape (http://www.inkscape.org/) -->

<svg
   width="35"
   height="35"
   viewBox="0 0 133.25377 37.784992"
   version="1.1"
   id="svg5"
   sodipodi:docname="favicon3.svg"
   inkscape:export-filename="C:\Users\null\Downloads\witloxpsychotherpy2\assets\img\logo2.png"
   inkscape:export-xdpi="96"
   inkscape:export-ydpi="96"
   inkscape:version="1.1.1 (3bf5ae0d25, 2021-09-20)"
   xmlns:inkscape="http://www.inkscape.org/namespaces/inkscape"
   xmlns:sodipodi="http://sodipodi.sourceforge.net/DTD/sodipodi-0.dtd"
   xmlns="http://www.w3.org/2000/svg"
   xmlns:svg="http://www.w3.org/2000/svg">
  <sodipodi:namedview
     id="namedview7"
     pagecolor="#ffffff"
     bordercolor="#666666"
     borderopacity="1.0"
     inkscape:pageshadow="2"
     inkscape:pageopacity="0.0"
     inkscape:pagecheckerboard="0"
     inkscape:document-units="mm"
     showgrid="false"
     inkscape:zoom="20.48"
     inkscape:cx="3.6132813"
     inkscape:cy="17.749023"
     inkscape:window-width="3440"
     inkscape:window-height="1369"
     inkscape:window-x="2552"
     inkscape:window-y="-8"
     inkscape:window-maximized="1"
     inkscape:current-layer="svg5" />
  <defs
     id="defs2" />
  <circle
     style="fill:#738171;stroke-width:3.80725"
     id="path1759"
     cx="66.626884"
     cy="18.892496"
     r="66.273674" />
  <g
     inkscape:label="Layer 1"
     inkscape:groupmode="layer"
     id="layer1"
     transform="translate(-13.003973,-73.976269)" />
  <path
     id="path110"
     style="fill:#ffffff;stroke-width:2.34105"
     d="M 31.654477,28.380901 25.755015,48.326705 H 17.795422 L 1.4080215,-14.78819 H 7.4947668 L 13.394235,8.6223795 21.915683,42.427243 C 26.098369,27.506909 29.313419,16.238621 31.560838,8.6223795 v 0 L 38.115794,-13.851767 H 44.95168 L 51.974854,8.7160234 62.462788,42.80181 C 65.896336,26.820195 68.36225,15.489482 69.860529,8.8096682 v 0 L 75.104496,-14.78819 h 5.805817 L 66.583048,48.326705 H 58.623456 L 52.349422,28.380901 41.6742,-6.2667428 C 39.301929,2.3483494 35.962022,13.897565 31.654477,28.380901 Z"
     sodipodi:nodetypes="cccccccscccccscccccccc" />
  <path
     id="path112"
     style="fill:#ffffff;stroke-width:2.27141"
     d="m 111.58189,-15.315143 c 5.93594,0 10.43333,1.226562 13.49216,3.679687 3.05883,2.4531217 4.58824,5.7996476 4.58824,10.0395863 v 0 c 0,4.7245388 -1.43855,8.9645107 -4.31568,12.7199197 -2.87711,3.755375 -6.92021,6.693057 -12.12931,8.813039 -5.20909,2.120014 -11.14504,3.180019 -17.807835,3.180019 v 0 h -2.725687 l -4.27025,16.172384 c -0.121147,0.423988 -0.302841,1.135715 -0.545142,2.135142 -0.242293,0.999428 -0.363438,1.80198 -0.363438,2.407664 v 0 c 0,1.150846 0.454262,1.968561 1.362842,2.453143 0.908566,0.484551 2.543977,0.757118 4.906247,0.8177 v 0 l -0.363439,1.817094 c -2.786254,-0.18151 -6.541654,-0.272244 -11.266186,-0.272244 v 0 c -5.330229,0 -9.267334,0.09073 -11.811317,0.272244 v 0 l 0.363438,-1.817094 c 2.180554,-0.121099 3.815966,-0.363392 4.906238,-0.726875 1.090279,-0.363438 1.953415,-1.059958 2.589404,-2.089615 0.635999,-1.029776 1.256851,-2.695495 1.862557,-4.997159 v 0 L 92.047763,-5.7752365 c 0.545141,-2.1805729 0.817705,-3.634262 0.817705,-4.3610745 v 0 c 0,-1.211444 -0.454259,-2.074584 -1.362838,-2.589415 -0.908565,-0.514866 -2.513694,-0.80259 -4.815386,-0.863161 v 0 l 0.454308,-1.817114 c 2.422838,0.181743 6.147945,0.272614 11.17533,0.272614 v 0 c 2.907408,0 5.087948,-0.03004 6.541648,-0.09068 v 0 z M 96.318024,21.299966 c 8.479916,0 14.627866,-2.210837 18.443836,-6.63251 3.81596,-4.421705 5.72395,-10.3273614 5.72395,-17.716963 v 0 c 0,-3.5737322 -0.90856,-6.2237177 -2.72569,-7.949963 -1.81713,-1.726279 -4.75482,-2.589417 -8.81307,-2.589417 v 0 c -1.81712,0 -3.24054,0.22713 -4.27025,0.681448 -1.0297,0.454263 -1.86255,1.226545 -2.49855,2.316848 -0.63598,1.0902356 -1.22655,2.6953544 -1.77168,4.8153545 v 0 L 93.228917,21.299966 Z"
     sodipodi:nodetypes="csssssscccsssssccsssccccsccsscsccsssccsssscssccsccs" />
</svg>
